<?xml version="1.0" encoding="UTF-8" standalone="no"?><!DOCTYPE svg PUBLIC "-//W3C//DTD SVG 1.1//EN" "http://www.w3.org/Graphics/SVG/1.1/DTD/svg11.dtd"><svg width="100%" height="100%" viewBox="0 0 2048 2048" version="1.1" xmlns="http://www.w3.org/2000/svg" xmlns:xlink="http://www.w3.org/1999/xlink" xml:space="preserve" xmlns:serif="http://www.serif.com/" style="fill-rule:evenodd;clip-rule:evenodd;stroke-linejoin:round;stroke-miterlimit:2;"><circle cx="1024" cy="1024" r="1024"/><path d="M562.939,1281.58l-290.202,-85.859l0,248.99l290.202,-163.131Z" style="fill:#e51b1d;"/><path d="M562.939,1281.58l460.221,592.424l-750.423,-429.293l290.202,-163.131Z" style="fill:#9f1713;"/><path d="M562.939,1281.58l460.221,592.424l0,-331.414l-460.221,-261.01Z" style="fill:#b91617;"/><path d="M1483.34,1281.58l291.92,163.131l-752.122,429.293l0,-331.414l460.202,-261.01Z" style="fill:#821013;"/><path d="M1483.34,1281.58l291.92,163.131l-0,-283.333l-291.92,-171.717l0,291.919Z" style="fill:#cd2528;"/><path d="M1483.34,1281.58l-455.05,-463.637l455.05,171.718l0,291.919Z" style="fill:#c92121;"/><path d="M1485.06,766.424l290.202,85.859l-0,-248.99l-290.202,163.131Z" style="fill:#cf3637;"/><path d="M1485.06,766.424l-460.221,-592.424l750.423,429.293l-290.202,163.131Z" style="fill:#d61c1d;"/><path d="M1485.06,766.424l-460.221,-592.424l-0,331.414l460.221,261.01Z" style="fill:#80171a;"/><path d="M564.657,766.424l-291.92,-163.131l752.122,-429.293l-0,331.414l-460.202,261.01Z" style="fill:#9e1a1c;"/><path d="M564.657,766.424l-291.92,-163.131l0,283.333l291.92,171.717l-0,-291.919Z" style="fill:#720f11;"/><path d="M564.657,766.424l455.05,463.637l-455.05,-171.718l-0,-291.919Z" style="fill:#540c0d;"/></svg>